<svg width="151" height="61" fill="none" xmlns="http://www.w3.org/2000/svg"><g clip-path="url(#clip0)"><g clip-path="url(#clip1)"><path d="M.574.303v4.101h29.169v-4.1H.574zm33.302 0v4.101h41.566s-4.245-4.1-9.869-4.1H33.876zm49.72 0v4.101h25.148l-1.493-4.1H83.597zm43.177 0l-1.492 4.101H150.2v-4.1h-23.427zM.574 8.28v4.1h29.169v-4.1H.574zm33.302.006v4.095h46.39s-.542-3.156-1.487-4.095H33.876zm49.72 0v4.095h27.905l-1.381-4.095H83.597zm40.192 0l-1.382 4.095H150.2V8.285h-26.412zM8.957 16.255v4.106h12.632v-4.107H8.957zm33.301 0v4.106H54.89v-4.107H42.258zm24.92 0v4.106h12.631s.802-2.169.802-4.107H67.177zm24.801 0v4.106h22.396l-1.492-4.107H91.979zm29.058 0l-1.499 4.106h22.507v-4.107h-21.008zm-112.08 7.98v4.101h12.632v-4.1H8.957zm33.301 0v4.101h32.265s2.7-2.104 3.56-4.1H42.257zm49.721 0v4.101h12.632v-2.282l.802 2.282h23.14l.86-2.282v2.282h12.632v-4.1h-23.713l-1.258 3.474-1.265-3.474h-23.83zM8.957 32.212v4.101h12.632v-4.101H8.957zm33.301 0v4.101h35.824c-.86-1.99-3.558-4.101-3.558-4.101H42.258zm49.721 0v4.101h12.632v-4.101H91.979zm14.927 0l1.528 4.101h17.35l1.452-4.101h-20.33zm22.507 0v4.101h12.632v-4.101h-12.632zM8.957 40.187v4.1h12.632v-4.1H8.957zm33.301 0v4.1H54.89v-4.1H42.258zm24.92 0v4.1H80.61c0-1.935-.802-4.1-.802-4.1H67.177zm24.801 0v4.1h12.632v-4.1H91.979zm17.795 0l1.481 4.1h11.631l1.493-4.1h-14.605zm19.639 0v4.1h12.632v-4.1h-12.632zM.803 48.162v4.107H29.97v-4.107H.803zm33.073 0v4.107h44.903c.945-.94 1.487-4.107 1.487-4.107h-46.39zm49.949 0v4.107h20.786v-4.107H83.825zm28.823 0l1.522 4.107h5.918l1.429-4.107h-8.869zm16.765 0v4.107h21.015v-4.107h-21.015zM.803 56.144v4.1H29.97v-4.1H.803zm33.073 0v4.095h31.697c5.624 0 9.87-4.096 9.87-4.096H33.875zm49.949 0v4.1h20.786v-4.1H83.825zm31.709 0l1.464 4.089.251.006 1.487-4.096h-3.202zm13.879 0v4.1h21.015v-4.1h-21.015z" fill="#1F70C1"/></g></g><defs><clipPath id="clip0"><path fill="#fff" transform="translate(.574 .303)" d="M0 0h149.854v60H0z"/></clipPath><clipPath id="clip1"><path fill="#fff" transform="translate(.574 .303)" d="M0 0h149.854v60H0z"/></clipPath></defs></svg>