<svg width="57" height="56" fill="none" xmlns="http://www.w3.org/2000/svg"><path d="M23.249 48.65c4.153-1.633 3.243-6.137 1.143-8.983-2.077-2.917-4.947-4.924-7.84-6.86A22.905 22.905 0 0111.092 28c-.653-.77-1.983-2.193-.63-2.473 1.377-.28 3.757 1.073 4.97 1.586 2.123.887 4.223 1.914 6.183 3.127l2.357-3.967c-3.64-2.403-8.307-4.526-12.647-5.156-2.473-.374-5.086.14-5.926 2.823-.747 2.31.443 4.643 1.796 6.463 3.197 4.27 8.167 6.324 11.877 10.01.793.77 1.75 1.68 2.217 2.754.49 1.026.373 1.096-.724 1.096-2.893 0-6.51-2.263-8.866-3.756l-2.357 3.966c3.57 2.194 9.543 5.624 13.907 4.177zm25.876-36.4c.514-.513.514-1.353 0-1.843l-3.033-3.034a1.311 1.311 0 00-1.82 0l-2.38 2.38 4.853 4.854 2.38-2.357zm-22.96 13.23v4.853h4.854l14.35-14.35-4.854-4.853-14.35 14.35z" fill="#2091F9"/></svg>