<svg width="46" height="47" fill="none" xmlns="http://www.w3.org/2000/svg"><path d="M22.999 27.137c4.228 0 7.666-3.439 7.666-7.667S27.227 11.803 23 11.803c-4.229 0-7.667 3.439-7.667 7.667s3.438 7.667 7.667 7.667zm0-11.5a3.837 3.837 0 013.833 3.833 3.837 3.837 0 01-3.833 3.833 3.837 3.837 0 01-3.834-3.833A3.837 3.837 0 0123 15.637z" fill="#fff"/><path d="M21.89 42.114a1.913 1.913 0 002.223 0c.583-.412 14.277-10.3 14.222-22.644 0-8.454-6.88-15.333-15.334-15.333S7.668 11.016 7.668 19.46c-.055 12.353 13.64 22.242 14.222 22.654zM23 7.97c6.343 0 11.5 5.158 11.5 11.51.04 8.506-8.41 16.144-11.5 18.649-3.087-2.507-11.54-10.147-11.5-18.659 0-6.342 5.158-11.5 11.5-11.5z" fill="#fff"/></svg>