<svg width="42" height="42" fill="none" xmlns="http://www.w3.org/2000/svg"><path d="M37.684 10.685a13.689 13.689 0 01-3.93 1.057 6.809 6.809 0 003.002-3.762 13.474 13.474 0 01-4.33 1.649 6.807 6.807 0 00-4.988-2.158 6.824 6.824 0 00-6.825 6.829c0 .528.064 1.056.169 1.565A19.396 19.396 0 016.708 8.72a6.777 6.777 0 00-.928 3.446 6.83 6.83 0 003.042 5.688 6.883 6.883 0 01-3.086-.869v.085a6.826 6.826 0 005.471 6.7 7.26 7.26 0 01-1.797.232 9.07 9.07 0 01-1.289-.104 6.837 6.837 0 006.38 4.735 13.68 13.68 0 01-8.473 2.918c-.572 0-1.1-.02-1.65-.084a19.327 19.327 0 0010.484 3.062c12.552 0 19.42-10.399 19.42-19.425 0-.296 0-.592-.02-.888a14.7 14.7 0 003.422-3.53z" fill="#fff"/></svg>