<svg width="42" height="42" fill="none" xmlns="http://www.w3.org/2000/svg"><path d="M35.736 4.99H6.276a1.28 1.28 0 00-1.28 1.28v29.46c0 .708.572 1.28 1.28 1.28h29.46a1.28 1.28 0 001.28-1.28V6.27a1.28 1.28 0 00-1.28-1.28zM14.494 32.275h-4.75V16.993h4.75v15.282zm-2.373-17.37a2.755 2.755 0 112.753-2.755 2.759 2.759 0 01-2.753 2.754zm20.16 17.37h-4.746v-7.432c0-1.774-.032-4.051-2.47-4.051-2.47 0-2.85 1.93-2.85 3.922v7.561h-4.743V16.993h4.555v2.09h.064c.633-1.201 2.182-2.47 4.495-2.47 4.811 0 5.696 3.166 5.696 7.28v8.382z" fill="#fff"/></svg>