<svg width="28" height="23" fill="none" xmlns="http://www.w3.org/2000/svg"><g clip-path="url(#clip0)"><path d="M25.813.905H1.438a.936.936 0 00-.938.937v18.75c0 .519.419.938.938.938h24.375a.936.936 0 00.937-.938V1.842a.936.936 0 00-.938-.937zM24.64 4.15v15.27H2.609V4.15l-.808-.63 1.151-1.48 1.254.976h18.84l1.255-.975 1.151 1.479-.811.63zm-1.594-1.137l-9.422 7.324-9.422-7.324L2.95 2.04 1.799 3.52l.808.629 10.008 7.781a1.64 1.64 0 002.013 0l10.014-7.778.808-.63-1.151-1.48-1.251.973z" fill="#2091F9"/></g><defs><clipPath id="clip0"><path fill="#fff" transform="translate(.5 .217)" d="M0 0h27v22H0z"/></clipPath></defs></svg>