<svg width="26" height="33" fill="none" xmlns="http://www.w3.org/2000/svg"><g clip-path="url(#clip0)" fill="#2091F9"><path d="M13.001 19.884a6.34 6.34 0 006.334-6.333A6.34 6.34 0 0013 7.217a6.34 6.34 0 00-6.333 6.334A6.34 6.34 0 0013 19.884zm0-9.5a3.17 3.17 0 013.167 3.167 3.17 3.17 0 01-3.167 3.166 3.17 3.17 0 01-3.166-3.166A3.17 3.17 0 0113 10.384z"/><path d="M11.748 32.256a1.58 1.58 0 001.837 0c.481-.34 11.794-8.509 11.748-18.706 0-6.984-5.682-12.666-12.666-12.666S0 6.566 0 13.543c-.046 10.204 11.267 18.373 11.748 18.713zm.919-28.206c5.24 0 9.5 4.261 9.5 9.508.033 7.027-6.948 13.337-9.5 15.406-2.55-2.07-9.533-8.382-9.5-15.413 0-5.24 4.26-9.5 9.5-9.5z"/></g><defs><clipPath id="clip0"><path fill="#fff" transform="translate(0 .717)" d="M0 0h26v32H0z"/></clipPath></defs></svg>